<svg xmlns="http://www.w3.org/2000/svg" viewBox="0 0 512 512" role="img" aria-label="SplitStreak icon">
  <rect width="512" height="512" fill="#23483f" />
  <circle cx="256" cy="256" r="196" fill="#2f6659" />
  <path
    d="M139 336c22 31 61 50 106 50 74 0 126-39 126-96 0-48-33-75-103-87-49-9-67-20-67-42 0-25 25-41 61-41 33 0 63 13 84 36l-44 45c-11-14-27-22-47-22-24 0-39 10-39 26 0 18 17 27 63 35 73 13 108 44 108 96 0 64-55 108-139 108-61 0-113-26-143-69l34-39Z"
    fill="#f6f8f5"
  />
  <path
    d="M127 137h75l183 238h-76L127 137Z"
    fill="#ffcf5a"
    opacity="0.95"
  />
</svg>
